<svg version="1.1" viewBox="0.0 0.0 960.0 720.0" fill="none" stroke="none" stroke-linecap="square" stroke-miterlimit="10" xmlns:xlink="http://www.w3.org/1999/xlink" xmlns="http://www.w3.org/2000/svg"><clipPath id="p.0"><path d="m0 0l960.0 0l0 720.0l-960.0 0l0 -720.0z" clip-rule="nonzero"/></clipPath><g clip-path="url(#p.0)"><path fill="#000000" fill-opacity="0.0" d="m0 0l960.0 0l0 720.0l-960.0 0z" fill-rule="evenodd"/><path fill="#000000" fill-opacity="0.0" d="m154.51431 707.4695c-46.231857 0 -107.994385 -14.056213 -128.67921 -69.91559c-38.81549 -104.82123 -36.51407 -271.17844 27.97148 -349.58408c56.479614 -68.67154 151.2623 -89.187805 223.79077 -58.581177c38.637665 16.304901 65.25162 66.1871 102.10205 88.8168c30.585388 18.78238 69.8931 12.429901 100.703 -5.6703796c68.26636 -40.105255 136.294 -87.668015 191.62213 -154.9521c38.488037 -46.804977 68.889404 -107.60802 113.28967 -143.61133c42.735413 -34.653305 120.387146 0.2379961 142.66968 60.47129c20.870056 56.415054 20.976257 124.002884 20.976257 187.07149c0 62.512787 13.176697 132.80167 -9.788574 187.0715c-18.399048 43.47931 -42.065125 84.533295 -71.33252 115.27219c-39.48816 41.47357 -96.84515 41.57007 -146.86206 41.57007c-105.63025 0 -210.46924 -30.235657 -316.0995 -30.235657c-72.6976 0 -137.539 63.77539 -205.60788 98.26105c-17.385056 8.8078 -30.385193 35.906006 -48.952454 35.906006" fill-rule="evenodd"/><path stroke="#000000" stroke-width="1.0" stroke-linejoin="round" stroke-linecap="butt" stroke-dasharray="4.0,3.0" d="m154.51431 707.4695c-46.231857 0 -107.994385 -14.056213 -128.67921 -69.91559c-38.81549 -104.82123 -36.51407 -271.17844 27.97148 -349.58408c56.479614 -68.67154 151.2623 -89.187805 223.79077 -58.581177c38.637665 16.304901 65.25162 66.1871 102.10205 88.8168c30.585388 18.78238 69.8931 12.429901 100.703 -5.6703796c68.26636 -40.105255 136.294 -87.668015 191.62213 -154.9521c38.488037 -46.804977 68.889404 -107.60802 113.28967 -143.61133c42.735413 -34.653305 120.387146 0.2379961 142.66968 60.47129c20.870056 56.415054 20.976257 124.002884 20.976257 187.07149c0 62.512787 13.176697 132.80167 -9.788574 187.0715c-18.399048 43.47931 -42.065125 84.533295 -71.33252 115.27219c-39.48816 41.47357 -96.84515 41.57007 -146.86206 41.57007c-105.63025 0 -210.46924 -30.235657 -316.0995 -30.235657c-72.6976 0 -137.539 63.77539 -205.60788 98.26105c-17.385056 8.8078 -30.385193 35.906006 -48.952454 35.906006" fill-rule="evenodd"/></g></svg>