<svg width="580" height="400" xmlns="http://www.w3.org/2000/svg">
 <!-- Created with Method Draw - http://github.com/duopixel/Method-Draw/ -->

  <g display="none" overflow="visible" y="0" x="0" height="100%" width="100%" id="canvasGrid">

 </g>

  <path d="m161.5,261.4375c1,0 1,0 -2,0c0,0 -3,0 -7,0c-5,0 -8,0 -9,0c-2,0 -4.080246,0.68927 -7,0c-4.352509,-1.027496 -7.222733,-2.723999 -11,-6c-3.205116,-2.779785 -7.367027,-5.658127 -12,-11c-3.276009,-3.777267 -5,-8 -7,-11c-2,-3 -3.541359,-6.702667 -5,-10c-1.668015,-3.770645 -2.497551,-8.925797 -3,-14c-0.39415,-3.98053 -0.366547,-8.022476 0,-11c0.503777,-4.092209 6.273788,-10.736526 13,-18c6.264214,-6.764587 12.042938,-11.925766 19,-16c5.031631,-2.946655 9.937958,-5.498291 16,-6c3.986374,-0.329926 8,0 11,0c2,0 5.07843,-0.210144 8,1c2.065857,0.855713 4,3 5,4c1,1 2.173096,1.852737 3,3c1.307449,1.813995 2,3 3,4c1,1 2.076126,2.61731 3,3c2.613129,1.082397 3.186005,2.692551 5,4c1.147263,0.826904 1.693436,1.458801 3,2c0.923874,0.38269 3,0 4,0c1,0 3,0 5,0c2,0 5.085815,0.579575 7,0c3.450851,-1.04483 4.186005,-2.692551 6,-4c1.147263,-0.826904 3,-3 4,-4c1,-1 2,-3 4,-6c2,-3 5,-7 7,-10c2,-3 3.812653,-6.206802 6,-8c2.78833,-2.285873 5.943665,-3.188339 9,-4c4.928207,-1.308762 11,-1 16,-1c9,0 11.215118,-0.639206 18,2c4.167908,1.621246 8.132019,3.75531 12,6c3.118469,1.809723 6.21167,3.714127 9,6c2.187347,1.793198 3.692535,3.186005 5,5c1.653809,2.29454 2.692535,4.186005 4,6c0.826904,1.147263 1,3 1,5c0,3 0,5 0,6c0,2 0,3 0,4c0,1 0,2 0,3c0,1 0,2 0,3c0,1 0,2 0,3c0,1 0,2 0,4c0,2 0.68927,4.080246 0,7c-0.513733,2.176254 -2.234619,5.152237 -3,7c-0.541199,1.306564 -2,3 -3,4c-1,1 -2,2 -3,3c-1,1 -2.0979,1.824432 -4,3c-4.253265,2.628662 -8,5 -11,7c-3,2 -6.152252,3.234634 -8,4c-2.613129,1.082397 -5,3 -8,4c-3,1 -6,1 -8,2c-2,1 -3.907791,2.496231 -8,3c-2.977524,0.366547 -6.07843,0.789856 -9,2c-2.065857,0.855713 -2.823746,1.486252 -5,2c-0.973251,0.229752 -1.852737,1.173096 -3,2c-1.813995,1.307449 -4.934143,2.144287 -7,3c-2.92157,1.210144 -5.152237,2.234634 -7,3c-2.613129,1.082397 -4.823746,3.486252 -7,4c-0.973251,0.229752 -2.693436,1.458801 -4,2c-0.923874,0.38269 -1,0 -2,0c-1,0 -2.693436,0.458801 -4,1c-1.847763,0.765381 -2.823746,0.486267 -5,1c-1.946503,0.459503 -5,0 -8,0c-2,0 -4,1 -7,1c-2,0 -3,0 -4,0c0,0 -1,0 -1,0c0,0 -1,0 -1,0c0,0 -1,0 -1,0c-1,0 -1,0 -1,0c-1,0 -2,0 -2,0c0,0 0,0 -1,0c0,0 0,0 -1,0c0,0 0,0 0,0c-1,0 -1,0 -1,0c-1,0 -1,0 -1,0c0,0 -1,1 -1,1c0,0 0,0 -1,0c0,0 0,0 0,0c-1,0 -1,0 -1,0c0,0 -1,0 -1,0c0,0 -1,0 -1,0c0,0 0,0 0,0c-1,0 -1,0 -1,0l0,0" id="svg_1" stroke-width="1.5" stroke="#000" fill="none"/>

</svg>